<?xml version="1.0" encoding="utf-8"?>
<!-- Generator: Adobe Illustrator 21.1.0, SVG Export Plug-In . SVG Version: 6.00 Build 0)  -->
<svg version="1.1" id="Слой_1" xmlns="http://www.w3.org/2000/svg" xmlns:xlink="http://www.w3.org/1999/xlink" x="0px" y="0px"
	 viewBox="0 0 32 32" style="enable-background:new 0 0 32 32;" xml:space="preserve">
<style type="text/css">
	.st0{fill:url(#SVGID_1_);}
</style>
<g>
	
		<linearGradient id="SVGID_1_" gradientUnits="userSpaceOnUse" x1="15.7898" y1="34.2514" x2="15.9565" y2="-10.7486" gradientTransform="matrix(1 0 0 -1 0 34)">
		<stop  offset="0" style="stop-color:#FF7602"/>
		<stop  offset="1" style="stop-color:#FF3502"/>
	</linearGradient>
	<path class="st0" d="M15.8,0C7.1,0,0,7.1,0,16s7.3,16,15.9,16s15.8-7.1,15.8-16S24.4,0,15.8,0z M4.8,19.6
		C4.8,19.7,4.8,19.7,4.8,19.6c-0.1,0.1-0.2,0.1-0.2,0l-0.2-1.3L4.6,17c0,0,0-0.1,0.1-0.1s0.1,0,0.1,0.1L5,18.3L4.8,19.6z M5.7,20.4
		c0,0.1,0,0.1-0.1,0.1c0,0-0.1,0-0.1-0.1l-0.2-2l0.2-2.1c0-0.1,0-0.1,0.1-0.1s0.1,0,0.1,0.1l0.3,2L5.7,20.4z M6.6,20.7
		c0,0.1,0,0.1-0.1,0.1s-0.1,0-0.1-0.1l-0.2-2.4l0.2-2.4c0-0.1,0.1-0.1,0.1-0.1s0.1,0,0.1,0.1l0.2,2.4L6.6,20.7z M7.5,20.8
		c0,0.1-0.1,0.1-0.1,0.1c-0.1,0-0.1,0-0.1-0.1L7,18.3l0.2-2.5c0-0.1,0.1-0.1,0.1-0.1c0.1,0,0.1,0,0.1,0.1l0.2,2.5L7.5,20.8z
		 M8.4,20.8c0,0.1-0.1,0.2-0.2,0.2c-0.1,0-0.1-0.1-0.1-0.2L8,18.3L8.1,16c0-0.1,0.1-0.2,0.1-0.2c0.1,0,0.2,0.1,0.2,0.2l0.2,2.3
		L8.4,20.8z M9.4,20.8c0,0.1-0.1,0.2-0.2,0.2S9,20.9,9,20.8l-0.2-2.5L9,14.5c0-0.1,0.1-0.2,0.2-0.2c0.1,0,0.2,0.1,0.2,0.2l0.2,3.8
		L9.4,20.8z M10.3,20.8c0,0.1-0.1,0.2-0.2,0.2s-0.2-0.1-0.2-0.2l-0.2-2.4l0.2-4.7c0-0.1,0.1-0.2,0.2-0.2s0.2,0.1,0.2,0.2l0.2,4.7
		L10.3,20.8z M11.3,20.8c0,0.1-0.1,0.2-0.2,0.2c-0.1,0-0.2-0.1-0.2-0.2l-0.2-2.4l0.2-5.1c0-0.1,0.1-0.2,0.2-0.2
		c0.1,0,0.2,0.1,0.2,0.2l0.2,5.1L11.3,20.8z M12.2,20.8c0,0.1-0.1,0.2-0.2,0.2c-0.1,0-0.2-0.1-0.2-0.2l-0.1-2.4l0.1-5.2
		c0-0.1,0.1-0.2,0.2-0.2c0.1,0,0.2,0.1,0.2,0.2l0.2,5.2L12.2,20.8z M13.2,20.7c0,0.1-0.1,0.3-0.3,0.3c-0.1,0-0.2-0.1-0.3-0.3
		l-0.1-2.4l0.1-5.1c0-0.1,0.1-0.3,0.3-0.3c0.1,0,0.3,0.1,0.3,0.3l0.2,5.1L13.2,20.7z M14.1,20.7c0,0.1-0.1,0.3-0.3,0.3
		s-0.3-0.1-0.3-0.3l-0.1-2.4l0.1-4.9c0-0.2,0.1-0.3,0.3-0.3s0.3,0.1,0.3,0.3l0.1,4.9L14.1,20.7z M15.1,20.7c0,0.2-0.1,0.3-0.3,0.3
		s-0.3-0.1-0.3-0.3l-0.1-2.4l0.1-5.8c0-0.2,0.1-0.3,0.3-0.3s0.3,0.1,0.3,0.3l0.1,5.8L15.1,20.7z M16.1,20.7c0,0.2-0.1,0.3-0.3,0.3
		s-0.3-0.1-0.3-0.3l-0.1-2.3l0.1-6.4c0-0.2,0.1-0.3,0.3-0.3s0.3,0.1,0.3,0.3l0.1,6.4L16.1,20.7z M24.4,21h-7.7
		c-0.2,0-0.3-0.2-0.3-0.3v-9c0-0.2,0.1-0.3,0.3-0.3c0.5-0.2,1.2-0.3,1.8-0.3c2.6,0,4.7,2,4.9,4.5c0.3-0.2,0.7-0.2,1.1-0.2
		c1.5,0,2.8,1.3,2.8,2.8C27.2,19.7,25.9,21,24.4,21z"/>
</g>
</svg>
